# xmcd CD database file
#
# Track frame offsets:
#	150
#	36865
#	63632
#	91510
#	124902
#	161270
#
# Disc length: 2436 seconds
#
# Revision: 0
# Processed by: cddbd v1.5.1PL0 Copyright (c) Steve Scherf et al.
# Submitted via: CDex 1.51
#
DISCID=43098206
DTITLE=tete montoliu trio - body and soul
DYEAR=1971
DGENRE=Jazz
TTITLE0=1- sweet georgia fame
TTITLE1=2- old folks
TTITLE2=3- blues
TTITLE3=4- a nightingale sang in berkeley squere
TTITLE4=5- body and soul
TTITLE5=6- lament
EXTD=YEAR: 1971
EXTT0=
EXTT1=
EXTT2=
EXTT3=
EXTT4=
EXTT5=
PLAYORDER=
